<?xml version="1.0" encoding="utf-8"?>
<!-- Generator: Adobe Illustrator 24.1.0, SVG Export Plug-In . SVG Version: 6.00 Build 0)  -->
<svg version="1.1" id="圖層_1" xmlns="http://www.w3.org/2000/svg" xmlns:xlink="http://www.w3.org/1999/xlink" x="0px" y="0px"
	 viewBox="0 0 35.7 34" style="enable-background:new 0 0 35.7 34;" xml:space="preserve">
<style type="text/css">
	.st0{fill:none;stroke:#FFFFFF;stroke-width:3;stroke-linecap:round;stroke-linejoin:round;stroke-miterlimit:10;}
	.st1{fill:#FFFFFF;}
	.st2{fill:#64CFF9;}
	.st3{opacity:0.2;}
	.st4{fill:#1EC7E4;}
	.st5{fill:#1E96E4;}
	.st6{fill:#FFB62E;}
	.st7{fill:#FFD953;}
	.st8{fill:#FFA72E;}
	.st9{fill:#1E83E4;}
	.st10{fill:#EDEDF4;}
	.st11{fill:url(#SVGID_1_);}
	.st12{fill:url(#SVGID_2_);}
	.st13{clip-path:url(#SVGID_4_);}
	.st14{fill:#DBE6FF;}
	.st15{fill:#B6CCF2;}
	.st16{fill:#EBF2FF;}
	.st17{fill:#7E7E7F;}
	.st18{opacity:0.1;enable-background:new    ;}
	.st19{fill:#65617D;}
	.st20{fill:#86ADD1;}
	.st21{fill:#E2E2E9;}
	.st22{fill:url(#SVGID_5_);}
	.st23{fill:#00CEE7;}
	.st24{fill:#FFBB00;}
	.st25{fill:#FFE200;}
	.st26{fill:#00B4FF;}
	.st27{fill:#00DEE7;}
	.st28{opacity:0.5;fill:url(#SVGID_6_);}
</style>
<g>
	<path class="st1" d="M7.1,34c-0.1,0-0.2,0-0.3-0.1c-0.2-0.1-0.2-0.3-0.2-0.5l2-11.7l-8.5-8.3C0,13.3,0,13.1,0,12.9
		c0.1-0.2,0.2-0.3,0.4-0.3l11.7-1.7l5.2-10.6c0.2-0.3,0.7-0.3,0.9,0l5.2,10.6l11.7,1.7c0.2,0,0.3,0.2,0.4,0.3c0.1,0.2,0,0.4-0.1,0.5
		L27,21.7l2,11.7c0,0.2,0,0.4-0.2,0.5c-0.2,0.1-0.4,0.1-0.5,0l-10.5-5.5L7.4,33.9C7.3,33.9,7.2,34,7.1,34z M17.8,27.3
		c0.1,0,0.2,0,0.2,0.1l9.8,5.2L26,21.6c0-0.2,0-0.3,0.1-0.4l7.9-7.7l-11-1.6c-0.2,0-0.3-0.1-0.4-0.3l-4.9-9.9l-4.9,9.9
		c-0.1,0.1-0.2,0.2-0.4,0.3l-11,1.6l7.9,7.7c0.1,0.1,0.2,0.3,0.1,0.4L7.8,32.5l9.8-5.2C17.7,27.3,17.7,27.3,17.8,27.3z"/>
</g>
</svg>
