<?xml version="1.0" encoding="utf-8"?>
<!-- Generator: Adobe Illustrator 24.1.0, SVG Export Plug-In . SVG Version: 6.00 Build 0)  -->
<svg version="1.1" id="圖層_1" xmlns="http://www.w3.org/2000/svg" xmlns:xlink="http://www.w3.org/1999/xlink" x="0px" y="0px"
	 viewBox="0 0 100 100" style="enable-background:new 0 0 100 100;" xml:space="preserve">
<style type="text/css">
	.st0{fill:#A5A5A5;}
</style>
<g id="Group_4863" transform="translate(5361.016 955.516)">
	<g id="Group_4790" transform="translate(674 755.499)">
		<path id="Path_4402" class="st0" d="M-5956.7-1621.7h-56.7c-6,0-10.9-4.9-10.9-10.9v-52.3c0-6,4.9-10.9,10.9-10.9h56.7
			c6,0,10.9,4.9,10.9,10.9v52.3C-5945.8-1626.6-5950.7-1621.7-5956.7-1621.7z M-6013.4-1691.5c-3.6,0-6.5,2.9-6.5,6.5v52.3
			c0,3.6,2.9,6.5,6.5,6.5h56.7c3.6,0,6.5-2.9,6.5-6.5v-52.3c0-3.6-2.9-6.5-6.5-6.5H-6013.4z"/>
	</g>
	<g id="Group_4791" transform="translate(674.999 759.495)">
		<rect id="Rectangle_2961" x="-6021" y="-1682.5" class="st0" width="74.2" height="4.4"/>
	</g>
	<g id="Group_4792" transform="translate(677.997 754)">
		<path id="Rectangle_2962" class="st0" d="M-6008.7-1698.8L-6008.7-1698.8c1.2,0,2.2,1,2.2,2.2v8.7c0,1.2-1,2.2-2.2,2.2l0,0
			c-1.2,0-2.2-1-2.2-2.2v-8.7C-6010.9-1697.8-6009.9-1698.8-6008.7-1698.8z"/>
	</g>
	<g id="Group_4793" transform="translate(686.989 754)">
		<path id="Rectangle_2963" class="st0" d="M-5978.4-1698.8L-5978.4-1698.8c1.2,0,2.2,1,2.2,2.2v8.7c0,1.2-1,2.2-2.2,2.2l0,0
			c-1.2,0-2.2-1-2.2-2.2v-8.7C-5980.6-1697.8-5979.6-1698.8-5978.4-1698.8z"/>
	</g>
	<g id="Group_4794" transform="translate(675.998 761.493)">
		<path id="Path_4403" class="st0" d="M-6004.5-1658.2h-8.7c-2.4,0-4.4-2-4.4-4.4v-8.7c0-2.4,2-4.4,4.4-4.4h8.7c2.4,0,4.4,2,4.4,4.4
			v8.7C-6000.1-1660.2-6002-1658.2-6004.5-1658.2z M-6013.2-1671.3v8.7h8.7v-8.7H-6013.2z"/>
	</g>
	<g id="Group_4795" transform="translate(680.994 761.493)">
		<path id="Path_4404" class="st0" d="M-5987.6-1658.2h-8.7c-2.4,0-4.4-2-4.4-4.4v-8.7c0-2.4,2-4.4,4.4-4.4h8.7c2.4,0,4.4,2,4.4,4.4
			v8.7C-5983.3-1660.2-5985.2-1658.2-5987.6-1658.2z M-5996.4-1671.3v8.7h8.7v-8.7H-5996.4z"/>
	</g>
	<g id="Group_4796" transform="translate(685.99 761.493)">
		<path id="Path_4405" class="st0" d="M-5970.8-1658.2h-8.7c-2.4,0-4.4-2-4.4-4.4v-8.7c0-2.4,2-4.4,4.4-4.4h8.7c2.4,0,4.4,2,4.4,4.4
			v8.7C-5966.5-1660.2-5968.4-1658.2-5970.8-1658.2z M-5979.6-1671.3v8.7h8.7v-8.7H-5979.6z"/>
	</g>
	<g id="Group_4797" transform="translate(675.998 766.489)">
		<path id="Path_4406" class="st0" d="M-6004.5-1641.4h-8.7c-2.4,0-4.4-2-4.4-4.4v-8.7c0-2.4,2-4.4,4.4-4.4h8.7c2.4,0,4.4,2,4.4,4.4
			v8.7C-6000.1-1643.4-6002-1641.4-6004.5-1641.4z M-6013.2-1654.5v8.7h8.7v-8.7H-6013.2z"/>
	</g>
	<g id="Group_4798" transform="translate(680.994 766.489)">
		<path id="Path_4407" class="st0" d="M-5987.6-1641.4h-8.7c-2.4,0-4.4-2-4.4-4.4v-8.7c0-2.4,2-4.4,4.4-4.4h8.7c2.4,0,4.4,2,4.4,4.4
			v8.7C-5983.3-1643.4-5985.2-1641.4-5987.6-1641.4z M-5996.4-1654.5v8.7h8.7v-8.7H-5996.4z"/>
	</g>
	<g id="Group_4799" transform="translate(685.99 766.489)">
		<path id="Path_4408" class="st0" d="M-5970.8-1641.4h-8.7c-2.4,0-4.4-2-4.4-4.4v-8.7c0-2.4,2-4.4,4.4-4.4h8.7c2.4,0,4.4,2,4.4,4.4
			v8.7C-5966.5-1643.4-5968.4-1641.4-5970.8-1641.4z M-5979.6-1654.5v8.7h8.7v-8.7H-5979.6z"/>
	</g>
</g>
</svg>
